PathFileType   4   (X/Y/Z)																																																																																																																							
DataRate	CameraRate	NumFrames	NumMarkers	Units	OrigDataRate	OrigDataStartFrame	OrigNumFrames																																																																																																																
120	120	4	37	mm	120	69	136																																																																																																																
Frame#	Time	Sternum	R.Acromium	L.Acromium	Top.Head	R.ASIS	L.ASIS	V.Sacral	R.Thigh.Upper	R.Thigh.Front	R.Thigh.Rear	R.Knee.Lat	R.Knee.Med	R.Shank.Upper	R.Shank.Front	R.Shank.Rear	R.Ankle.Lat	R.Ankle.Med	R.Heel	R.Midfoot.Sup	R.Midfoot.Lat	R.Toe.Lat	R.Toe.Med	R.Toe.Tip	L.Thigh.Upper	L.Thigh.Front	L.Thigh.Rear	L.Knee.Lat	L.Knee.Med	L.Shank.Upper	L.Shank.Front	L.Shank.Rear	L.Ankle.Lat	L.Ankle.Med	L.Heel	L.Midfoot.Sup	L.Midfoot.Lat	L.Toe.Lat	L.Toe.Med	L.Toe.Tip																																																																															
 	 	X1	Y1	Z1	X2	Y2	Z2	X3	Y3	Z3	X4	Y4	Z4	X5	Y5	Z5	X6	Y6	Z6	X7	Y7	Z7	X8	Y8	Z8	X9	Y9	Z9	X10	Y10	Z10	X11	Y11	Z11	X12	Y12	Z12	X13	Y13	Z13	X14	Y14	Z14	X15	Y15	Z15	X16	Y16	Z16	X17	Y17	Z17	X18	Y18	Z18	X19	Y19	Z19	X20	Y20	Z20	X21	Y21	Z21	X22	Y22	Z22	X23	Y23	Z23	X24	Y24	Z24	X25	Y25	Z25	X26	Y26	Z26	X27	Y27	Z27	X28	Y28	Z28	X29	Y29	Z29	X30	Y30	Z30	X31	Y31	Z31	X32	Y32	Z32	X33	Y33	Z33	X34	Y34	Z34	X35	Y35	Z35	X36	Y36	Z36	X37	Y37	Z37	X38	Y38	Z38	X39	Y39	Z39	
																																																																																																																							
	69	0.8	1976.453788	-0.001000353	1241.618852	1908.942583	-161.6639114	1315.429609	1911.627911	164.9109026	1314.858598	2036.662705	-10.07056321	1527.007555	1967.49408	-126.4287728	873.9270704	1973.026542	128.1563878	865.5833633	1778.680217	-6.022778891	890.1203681	1989.52905	-163.1570236	608.4844497	2059.985252	-74.72940176	574.903533	2021.2823	-154.4047096	500.4369629	2015.94218	-137.316947	413.116171	2020.067269	-24.75841468	398.1026346	1986.477302	-149.3438724	378.2450123	2060.717457	-96.85682453	348.8953026	2006.815675	-158.2831336	297.2064147	2025.959801	-134.0955655	22.72254188	2032.584111	-48.0330811	37.15111315	1963.368647	-83.91925551	1.486124823	2101.545811	-49.92190453	11.64158498	2096.368993	-153.2800315	-7.356791608	2182.49227	-162.0397613	-30.955972	2184.810826	-57.59368751	-18.37714778	2243.506191	-88.18151523	-18.26190836	1874.224712	167.6781368	585.536599	1940.1711	97.4394069	536.3471549	1849.883827	153.3828701	487.1851813	1807.263534	138.945524	371.7141346	1808.48763	31.06670304	372.1939837	1771.582845	156.0706667	360.7471536	1770.102893	102.6419486	296.4906863	1731.13052	166.4841022	341.5281639	1537.623205	133.6260322	108.4058462	1555.755334	45.5255286	122.2240453	1477.166867	81.19863714	151.418718	1590.536374	55.77109965	30.12472596	1578.640738	150.766436	43.2436327	1602.985154	160.8566492	-16.93300882	1613.997298	62.45973316	-29.10658503	1646.421381	86.83216932	-63.67486176
	70	0.80833	1983.676828	-0.001000353	1242.569162	1916.15207	-161.6639114	1316.367521	1918.837503	164.9109026	1315.797004	2043.833339	-10.07056321	1527.968917	1974.928083	-126.4287728	875.2000267	1980.485164	128.1563878	866.8726956	1786.067218	-6.022778891	890.8356073	1995.604559	-163.1570236	608.3532835	2065.740481	-74.72940176	574.1084765	2026.335993	-154.4047096	500.0107377	2020.171454	-137.316947	412.7442719	2024.154572	-24.75841468	397.6924478	1990.333056	-149.3438724	378.1706538	2064.263304	-96.85682453	348.0488256	2009.82576	-158.2831336	296.9244957	2026.108244	-134.0955655	22.25601424	2032.882565	-48.0330811	36.61476502	1963.52306	-83.91925551	0.986618863	2101.702602	-49.92190453	11.10967705	2096.521329	-153.2800315	-7.887485086	2182.63907	-162.0397613	-31.50686021	2184.960575	-57.59368751	-18.92858002	2243.655966	-88.18151523	-18.82710431	1885.08937	167.6781368	586.6109093	1951.821765	97.4394069	538.4931895	1862.340442	153.3828701	487.8791197	1821.591044	138.945524	371.7346471	1822.807228	31.06670304	372.2342078	1784.104517	156.0706667	361.6088931	1780.963023	102.6419486	297.4122041	1743.168613	166.4841022	343.44266	1543.696175	133.6260322	115.4035356	1562.179655	45.5255286	128.7481118	1485.456484	81.19863714	161.3311671	1592.539501	55.77109965	34.45285916	1581.323329	150.766436	48.15721456	1602.589791	160.8566492	-13.17480296	1612.971465	62.45973316	-25.89030916	1643.603779	86.83216932	-62.05587692
	71	0.81667	1990.82501	-0.001000353	1243.465322	1923.29748	-161.6639114	1317.261144	1925.982934	164.9109026	1316.690728	2050.9708	-10.07056321	1528.867336	1982.226559	-126.4287728	876.4067389	1987.806017	128.1563878	868.0943846	1793.324323	-6.022778891	891.534292	2001.396562	-163.1570236	608.1222762	2071.183222	-74.72940176	573.1712178	2031.032753	-154.4047096	499.4750282	2023.987605	-137.316947	412.2752376	2027.818577	-24.75841468	397.1839722	1993.830645	-149.3438724	377.9929834	2067.472304	-96.85682453	347.1723378	2012.553021	-158.2831336	296.5658602	2026.233482	-134.0955655	21.75549114	2033.143487	-48.0330811	36.04944066	1963.657155	-83.91925551	0.444362117	2101.837098	-49.92190453	10.56193982	2096.655072	-153.2800315	-8.435016802	2182.771876	-162.0397613	-32.05780751	2185.09388	-57.59368751	-19.4796194	2243.789275	-88.18151523	-19.38047167	1895.967042	167.6781368	587.7053826	1963.509991	97.4394069	540.7322245	1874.904474	153.3828701	488.6001441	1836.140882	138.945524	371.7779035	1837.348374	31.06670304	372.2981236	1796.867864	156.0706667	362.4846543	1792.098912	102.6419486	298.3883132	1755.484313	166.4841022	345.3626835	1550.29142	133.6260322	122.4569354	1569.107462	45.5255286	135.3283491	1494.308034	81.19863714	171.0693354	1595.115838	55.77109965	39.15017781	1584.577052	150.766436	53.38203833	1602.845964	160.8566492	-8.908616385	1612.599159	62.45973316	-22.11234448	1641.442649	86.83216932	-59.72005661
	72	0.825	1997.917831	-0.001000353	1244.284494	1930.401966	-161.6639114	1318.090989	1933.08733	164.9109026	1317.520148	2058.10873	-10.07056321	1529.676998	1989.390094	-126.4287728	877.52241	1994.989129	128.1563878	869.2232298	1800.452726	-6.022778891	892.2046707	2006.916015	-163.1570236	607.7890208	2076.326973	-74.72940176	572.09766	2035.394912	-154.4047096	498.8326961	2027.42267	-137.316947	411.7127733	2031.092909	-24.75841468	396.5816138	1996.997381	-149.3438724	377.714228	2070.371645	-96.85682453	346.2623059	2015.019794	-158.2831336	296.1293251	2026.33976	-134.0955655	21.21160589	2033.372262	-48.0330811	35.44568722	1963.772114	-83.91925551	-0.140499666	2101.951961	-49.92190453	9.978385298	2096.770114	-153.2800315	-9.018620345	2182.887142	-162.0397613	-32.64059633	2185.209027	-57.59368751	-20.06238626	2243.904421	-88.18151523	-19.96268323	1906.834124	167.6781368	588.8093829	1975.205079	97.4394069	543.0497944	1887.544586	153.3828701	489.3438422	1850.87321	138.945524	371.848046	1852.07122	31.06670304	372.3897447	1809.852381	156.0706667	363.3649805	1803.508152	102.6419486	299.4053478	1768.060166	166.4841022	347.2661935	1557.44606	133.6260322	129.4754807	1576.573035	45.5255286	141.8801397	1503.692843	81.19863714	180.5061758	1598.40341	55.77109965	44.14347573	1588.522066	150.766436	58.83942418	1603.942219	160.8566492	-4.216881299	1613.085493	62.45973316	-17.8500691	1640.190664	86.83216932	-56.72932543
